<svg xmlns="http://www.w3.org/2000/svg" viewBox="0 0 900 900" role="img" aria-label="Siddharth Srivastava monogram portrait placeholder">
  <defs>
    <radialGradient id="g" cx="50%" cy="45%" r="65%">
      <stop offset="0" stop-color="#67f8d7" stop-opacity="0.95"/>
      <stop offset="0.45" stop-color="#2dd4bf" stop-opacity="0.35"/>
      <stop offset="1" stop-color="#071018" stop-opacity="0"/>
    </radialGradient>
    <linearGradient id="stroke" x1="0" x2="1" y1="0" y2="1">
      <stop offset="0" stop-color="#effefb"/>
      <stop offset="1" stop-color="#60a5fa"/>
    </linearGradient>
    <filter id="blur"><feGaussianBlur stdDeviation="16"/></filter>
  </defs>
  <rect width="900" height="900" rx="120" fill="#07090d"/>
  <circle cx="450" cy="450" r="370" fill="url(#g)"/>
  <g opacity="0.42" filter="url(#blur)">
    <circle cx="225" cy="280" r="80" fill="#60a5fa"/>
    <circle cx="685" cy="630" r="120" fill="#5eead4"/>
  </g>
  <g fill="none" stroke="#dffbf4" stroke-width="2" opacity="0.22">
    <path d="M100 460c120-90 215-118 352-115 150 4 235 45 348 128"/>
    <path d="M160 645c100-70 202-95 310-86 118 10 207 48 274 115"/>
    <path d="M120 260c106 45 194 58 290 43 103-16 180-49 283-104"/>
  </g>
  <g stroke="url(#stroke)" stroke-width="18" stroke-linecap="round" stroke-linejoin="round" fill="none">
    <path d="M290 565c38 52 115 75 190 52 77-24 107-98 33-134l-116-55c-66-31-50-119 32-134 69-13 131 18 164 70"/>
    <path d="M253 340c42-67 118-103 203-100 86 3 155 43 194 110" opacity="0.85"/>
  </g>
  <text x="450" y="785" text-anchor="middle" font-family="Inter, Arial, sans-serif" font-size="38" letter-spacing="10" fill="#cbd5e1">BACKEND ENGINEER</text>
</svg>
